<mxfile host="app.diagrams.net" modified="2022-10-30T16:10:18.477Z" agent="5.0 (Windows)" etag="ZIXYvYOc69nyHTeyEJn1" version="20.4.2" type="github">
  <diagram id="ckea8jHu8L9NBwezrHf8" name="Page-1">
    <mxGraphModel dx="2554" dy="702" grid="1" gridSize="10" guides="1" tooltips="1" connect="1" arrows="1" fold="1" page="1" pageScale="1" pageWidth="1200" pageHeight="1920" math="0" shadow="0">
      <root>
        <mxCell id="0" />
        <mxCell id="1" parent="0" />
        <mxCell id="uR6lb-q2s7YtgvhSfxub-382" value="un joueur arrive sur le jeu&#xa;" style="swimlane;" vertex="1" parent="1">
          <mxGeometry x="420" y="40" width="360" height="200" as="geometry" />
        </mxCell>
        <mxCell id="uR6lb-q2s7YtgvhSfxub-384" value="&lt;font style=&quot;font-size: 8px;&quot;&gt;btn: héberger une partie &lt;/font&gt;" style="rounded=1;whiteSpace=wrap;html=1;" vertex="1" parent="uR6lb-q2s7YtgvhSfxub-382">
          <mxGeometry x="20" y="170" width="90" height="20" as="geometry" />
        </mxCell>
        <mxCell id="uR6lb-q2s7YtgvhSfxub-385" value="&lt;font style=&quot;font-size: 8px;&quot;&gt;btn: rejoindre une partie&lt;br&gt;&lt;/font&gt;" style="rounded=1;whiteSpace=wrap;html=1;" vertex="1" parent="uR6lb-q2s7YtgvhSfxub-382">
          <mxGeometry x="135" y="170" width="90" height="20" as="geometry" />
        </mxCell>
        <mxCell id="uR6lb-q2s7YtgvhSfxub-386" value="&lt;font style=&quot;font-size: 8px;&quot;&gt;btn: classement&lt;br&gt;&lt;/font&gt;" style="rounded=1;whiteSpace=wrap;html=1;" vertex="1" parent="uR6lb-q2s7YtgvhSfxub-382">
          <mxGeometry x="250" y="170" width="90" height="20" as="geometry" />
        </mxCell>
        <mxCell id="uR6lb-q2s7YtgvhSfxub-388" value="" style="endArrow=classic;html=1;rounded=0;fontSize=8;exitX=0.5;exitY=1;exitDx=0;exitDy=0;entryX=1;entryY=0;entryDx=0;entryDy=0;" edge="1" parent="1" source="uR6lb-q2s7YtgvhSfxub-382" target="uR6lb-q2s7YtgvhSfxub-391">
          <mxGeometry width="50" height="50" relative="1" as="geometry">
            <mxPoint x="660" y="340" as="sourcePoint" />
            <mxPoint x="400" y="360" as="targetPoint" />
          </mxGeometry>
        </mxCell>
        <mxCell id="uR6lb-q2s7YtgvhSfxub-389" value="" style="endArrow=classic;html=1;rounded=0;fontSize=8;exitX=0.5;exitY=1;exitDx=0;exitDy=0;" edge="1" parent="1" source="uR6lb-q2s7YtgvhSfxub-382">
          <mxGeometry width="50" height="50" relative="1" as="geometry">
            <mxPoint x="610" y="250" as="sourcePoint" />
            <mxPoint x="600" y="360" as="targetPoint" />
            <Array as="points">
              <mxPoint x="600" y="350" />
            </Array>
          </mxGeometry>
        </mxCell>
        <mxCell id="uR6lb-q2s7YtgvhSfxub-390" value="" style="endArrow=classic;html=1;rounded=0;fontSize=8;" edge="1" parent="1">
          <mxGeometry width="50" height="50" relative="1" as="geometry">
            <mxPoint x="600" y="240" as="sourcePoint" />
            <mxPoint x="800" y="360" as="targetPoint" />
          </mxGeometry>
        </mxCell>
        <mxCell id="uR6lb-q2s7YtgvhSfxub-391" value="page hébergement de la partie" style="swimlane;" vertex="1" parent="1">
          <mxGeometry x="40" y="360" width="240" height="200" as="geometry" />
        </mxCell>
        <mxCell id="uR6lb-q2s7YtgvhSfxub-397" value="saisir IP : " style="rounded=0;whiteSpace=wrap;html=1;fontSize=8;" vertex="1" parent="uR6lb-q2s7YtgvhSfxub-391">
          <mxGeometry x="10" y="40" width="120" height="20" as="geometry" />
        </mxCell>
        <mxCell id="uR6lb-q2s7YtgvhSfxub-398" value="nom de la partie :" style="rounded=0;whiteSpace=wrap;html=1;fontSize=8;" vertex="1" parent="uR6lb-q2s7YtgvhSfxub-391">
          <mxGeometry x="10" y="70" width="120" height="20" as="geometry" />
        </mxCell>
        <mxCell id="uR6lb-q2s7YtgvhSfxub-395" value="page rejoindre une partie" style="swimlane;" vertex="1" parent="1">
          <mxGeometry x="480" y="360" width="240" height="200" as="geometry" />
        </mxCell>
        <mxCell id="uR6lb-q2s7YtgvhSfxub-404" value="parties" style="swimlane;fontStyle=0;childLayout=stackLayout;horizontal=1;startSize=26;fillColor=none;horizontalStack=0;resizeParent=1;resizeParentMax=0;resizeLast=0;collapsible=1;marginBottom=0;fontSize=8;" vertex="1" parent="uR6lb-q2s7YtgvhSfxub-395">
          <mxGeometry x="10" y="30" width="150" height="104" as="geometry" />
        </mxCell>
        <mxCell id="uR6lb-q2s7YtgvhSfxub-405" value="nom partie                                  1/2" style="text;strokeColor=none;fillColor=none;align=left;verticalAlign=top;spacingLeft=4;spacingRight=4;overflow=hidden;rotatable=0;points=[[0,0.5],[1,0.5]];portConstraint=eastwest;fontSize=8;" vertex="1" parent="uR6lb-q2s7YtgvhSfxub-404">
          <mxGeometry y="26" width="150" height="26" as="geometry" />
        </mxCell>
        <mxCell id="uR6lb-q2s7YtgvhSfxub-406" value="nom partie                                  2/2" style="text;strokeColor=none;fillColor=none;align=left;verticalAlign=top;spacingLeft=4;spacingRight=4;overflow=hidden;rotatable=0;points=[[0,0.5],[1,0.5]];portConstraint=eastwest;fontSize=8;" vertex="1" parent="uR6lb-q2s7YtgvhSfxub-404">
          <mxGeometry y="52" width="150" height="26" as="geometry" />
        </mxCell>
        <mxCell id="uR6lb-q2s7YtgvhSfxub-407" value="nom partie                                  1/2" style="text;strokeColor=none;fillColor=none;align=left;verticalAlign=top;spacingLeft=4;spacingRight=4;overflow=hidden;rotatable=0;points=[[0,0.5],[1,0.5]];portConstraint=eastwest;fontSize=8;" vertex="1" parent="uR6lb-q2s7YtgvhSfxub-404">
          <mxGeometry y="78" width="150" height="26" as="geometry" />
        </mxCell>
        <mxCell id="uR6lb-q2s7YtgvhSfxub-408" value="JOIN" style="rounded=1;whiteSpace=wrap;html=1;fontSize=8;fillColor=#d5e8d4;strokeColor=#82b366;" vertex="1" parent="uR6lb-q2s7YtgvhSfxub-395">
          <mxGeometry x="165" y="59" width="50" height="20" as="geometry" />
        </mxCell>
        <mxCell id="uR6lb-q2s7YtgvhSfxub-409" value="JOIN" style="rounded=1;whiteSpace=wrap;html=1;fontSize=8;fillColor=#d5e8d4;strokeColor=#82b366;" vertex="1" parent="uR6lb-q2s7YtgvhSfxub-395">
          <mxGeometry x="165" y="114" width="50" height="20" as="geometry" />
        </mxCell>
        <mxCell id="uR6lb-q2s7YtgvhSfxub-399" value="" style="endArrow=classic;html=1;rounded=0;fontSize=8;" edge="1" parent="1">
          <mxGeometry width="50" height="50" relative="1" as="geometry">
            <mxPoint x="159.7" y="560" as="sourcePoint" />
            <mxPoint x="80" y="640" as="targetPoint" />
          </mxGeometry>
        </mxCell>
        <mxCell id="uR6lb-q2s7YtgvhSfxub-402" value="success" style="swimlane;" vertex="1" parent="1">
          <mxGeometry x="-40" y="640" width="160" height="120" as="geometry" />
        </mxCell>
        <mxCell id="uR6lb-q2s7YtgvhSfxub-403" value="waiting" style="ellipse;whiteSpace=wrap;html=1;fontSize=8;" vertex="1" parent="uR6lb-q2s7YtgvhSfxub-402">
          <mxGeometry x="20" y="40" width="120" height="60" as="geometry" />
        </mxCell>
        <mxCell id="uR6lb-q2s7YtgvhSfxub-410" value="page classement" style="swimlane;" vertex="1" parent="1">
          <mxGeometry x="800" y="360" width="240" height="200" as="geometry" />
        </mxCell>
        <mxCell id="uR6lb-q2s7YtgvhSfxub-411" value="scores" style="swimlane;fontStyle=0;childLayout=stackLayout;horizontal=1;startSize=26;fillColor=none;horizontalStack=0;resizeParent=1;resizeParentMax=0;resizeLast=0;collapsible=1;marginBottom=0;fontSize=8;" vertex="1" parent="uR6lb-q2s7YtgvhSfxub-410">
          <mxGeometry x="10" y="30" width="150" height="104" as="geometry" />
        </mxCell>
        <mxCell id="uR6lb-q2s7YtgvhSfxub-412" value="1 rnv                                    xxx pt" style="text;strokeColor=none;fillColor=none;align=left;verticalAlign=top;spacingLeft=4;spacingRight=4;overflow=hidden;rotatable=0;points=[[0,0.5],[1,0.5]];portConstraint=eastwest;fontSize=8;" vertex="1" parent="uR6lb-q2s7YtgvhSfxub-411">
          <mxGeometry y="26" width="150" height="26" as="geometry" />
        </mxCell>
        <mxCell id="uR6lb-q2s7YtgvhSfxub-413" value="2 ssj" style="text;strokeColor=none;fillColor=none;align=left;verticalAlign=top;spacingLeft=4;spacingRight=4;overflow=hidden;rotatable=0;points=[[0,0.5],[1,0.5]];portConstraint=eastwest;fontSize=8;" vertex="1" parent="uR6lb-q2s7YtgvhSfxub-411">
          <mxGeometry y="52" width="150" height="26" as="geometry" />
        </mxCell>
        <mxCell id="uR6lb-q2s7YtgvhSfxub-414" value="..." style="text;strokeColor=none;fillColor=none;align=left;verticalAlign=top;spacingLeft=4;spacingRight=4;overflow=hidden;rotatable=0;points=[[0,0.5],[1,0.5]];portConstraint=eastwest;fontSize=8;" vertex="1" parent="uR6lb-q2s7YtgvhSfxub-411">
          <mxGeometry y="78" width="150" height="26" as="geometry" />
        </mxCell>
      </root>
    </mxGraphModel>
  </diagram>
</mxfile>
